<svg xmlns="http://www.w3.org/2000/svg" viewBox="0 0 64 64" role="img" aria-label="ККУ favicon">
  <defs>
    <linearGradient id="bg" x1="0" x2="1" y1="0" y2="1">
      <stop offset="0" stop-color="#0a2447"/>
      <stop offset="1" stop-color="#143a70"/>
    </linearGradient>
  </defs>
  <rect width="64" height="64" rx="14" fill="url(#bg)"/>
  <path
    d="M14 39c7 0 12-2 16-7 3-4 7-6 12-6 4 0 8 1 10 3-1 2-3 5-7 6 2 1 4 3 5 5-3 2-8 4-14 4H14z"
    fill="#a9d2ff"
  />
  <circle cx="43" cy="30" r="1.7" fill="#0a2447"/>
  <path d="M16 24c4 0 7-2 9-5 1 3 3 5 6 6-5 2-10 2-15-1z" fill="#e4f2ff"/>
  <path d="M33 20c2-2 4-4 4-7 3 1 5 4 5 7-3-1-6-1-9 0z" fill="#e4f2ff"/>
</svg>
